<?xml version="1.0" encoding="UTF-8" standalone="no"?>
<!-- Created with Inkscape (http://www.inkscape.org/) -->

<svg
   width="5cm"
   height="5cm"
   viewBox="0 0 50 50"
   version="1.1"
   id="svg1"
   xmlns="http://www.w3.org/2000/svg"
   xmlns:svg="http://www.w3.org/2000/svg">
  <defs
     id="defs1">
    <linearGradient
       id="swatch7">
      <stop
         style="stop-color:#000000;stop-opacity:1;"
         offset="0"
         id="stop7" />
    </linearGradient>
  </defs>
  <g
     id="layer1">
    <path
       style="fill:none;fill-opacity:1;stroke:#000000;stroke-width:0.5;stroke-linecap:round;stroke-dasharray:none;stroke-opacity:1"
       id="path162"
       d="M 10.948218,30.289057 A 16.232811,16.232811 0 0 1 11.940333,7.8918063 16.232811,16.232811 0 0 1 34.3595,7.846431 16.232811,16.232811 0 0 1 35.442269,30.239482" />
    <path
       style="fill:none;fill-opacity:1;stroke:#000000;stroke-width:0.499999;stroke-linecap:round;stroke-dasharray:none;stroke-opacity:1"
       d="m 10.1614,29.295487 c -1.3871932,1.872961 -1.8081922,1.721724 -1.4843467,3.162835 0.3238453,1.441111 1.3658267,2.347878 2.4830927,1.07954 1.117267,-1.268339 2.061927,0.485768 3.119766,-0.161921 1.057839,-0.647692 1.29004,-0.766546 2.14823,-0.307655 0.858191,0.458893 0.820297,1.343959 2.277768,0.129537 1.457472,-1.214419 1.959599,-1.495196 2.817789,-0.658539 0.85819,0.836655 1.128117,1.425085 2.299303,0.52366 1.171185,-0.901425 1.603035,-1.538431 2.461226,-0.604621 0.858189,0.93381 1.014938,1.06869 2.072776,0.334696 1.057839,-0.733994 1.630077,-0.755695 2.304812,-0.2105 0.674732,0.545195 0.680074,0.917784 1.937729,0.329353 1.257654,-0.58843 1.349301,-1.899838 2.542185,-1.101074 1.192888,0.798764 1.78115,1.306066 2.558546,0.928302 1.01183,-0.491683 2.013519,0.167264 1.257824,-2.407307 -0.716,-2.439332 -1.89483,-2.185955 -1.89483,-2.185955"
       id="path168" />
    <path
       style="fill:none;fill-opacity:1;stroke:#000000;stroke-width:0.499999;stroke-linecap:round;stroke-dasharray:none;stroke-opacity:1"
       d="m 14.339316,33.407545 c -0.06847,0.306909 -0.230066,0.5798 -0.320509,0.873477 -0.03011,0.09777 -0.115925,0.185304 -0.138388,0.282803 -0.153187,0.664861 -0.263958,1.348793 -0.364436,2.023538 -0.0575,0.386133 -0.01107,0.792226 -0.06297,1.18155 -0.04209,0.315682 -0.142847,0.633855 -0.219827,0.942671 -0.255995,1.026956 -0.463719,2.058442 -0.904966,3.029188 -0.312739,0.688025 -0.783286,1.310023 -1.081061,2.004684 -0.357517,0.834031 -0.815155,2.252213 -0.527897,3.142308 0.10525,0.326128 0.376863,0.710401 0.703798,0.848405 0.182584,0.07707 0.381713,0.110374 0.565603,0.188535 0.220119,0.09356 0.408395,0.255389 0.641212,0.320508 0.202762,0.05671 0.435988,-0.0092 0.634603,-0.03771 0.375454,-0.05387 0.771356,-0.05358 1.118768,-0.232656 0.217211,-0.111961 0.413889,-0.305382 0.622164,-0.439849 0.22858,-0.147574 0.495839,-0.248102 0.710212,-0.414776 0.80443,-0.625436 1.501879,-1.480844 1.935686,-2.400607 0.354177,-0.750933 0.494753,-1.500238 0.672505,-2.300124 0.245307,-1.103881 0.467144,-2.228998 0.395922,-3.368548 -0.03024,-0.483809 -0.169825,-0.957476 -0.213607,-1.439082 -0.06785,-0.746349 -0.08421,-1.493975 -0.119535,-2.24356 -0.02084,-0.442148 -0.06378,-0.897459 -0.01885,-1.338596 0.01194,-0.117184 0.09182,-0.200216 0.11312,-0.30807 0.01475,-0.07469 -0.0032,-0.13049 0.02527,-0.200973"
       id="path174" />
    <path
       style="fill:none;fill-opacity:1;stroke:#000000;stroke-width:0.499999;stroke-linecap:round;stroke-dasharray:none;stroke-opacity:1"
       d="m 18.492754,37.412344 c -0.04416,0.127143 0.146699,0.563007 0.176637,0.878245 0.0318,0.474599 0.257041,0.898338 0.351995,1.357448 0.07971,0.3854 0.05753,0.786207 0.125755,1.175134 0.128844,0.734467 0.320222,1.404037 0.389508,2.161928 0.06882,0.752761 0.139525,1.476868 0.345777,2.205855 0.114305,0.404006 0.194907,0.936853 0.509043,1.250548 0.152983,0.152768 0.393818,0.252233 0.571823,0.370848 0.199365,0.132848 0.372529,0.258921 0.609725,0.326729 0.622803,0.178041 1.380065,-0.06005 1.835199,-0.496409 0.691074,-0.662577 1.48017,-2.338332 1.709445,-3.255428 0.108351,-0.433406 0.199538,-0.892987 0.232461,-1.338596 0.03093,-0.418647 -0.0076,-0.843317 0,-1.263181 0.0066,-0.369282 0.02998,-0.739643 -0.03771,-1.106133 -0.109664,-0.59373 -0.311889,-1.175301 -0.402142,-1.772227 -0.124668,-0.824537 -0.141804,-1.650674 -0.176095,-2.482241 -0.02506,-0.607743 -0.01672,-1.483003 0.176095,-2.061441 0.08684,-0.260529 0.196379,-0.514405 0.339362,-0.747723 0.105618,-0.172347 0.267436,-0.332374 0.358216,-0.490191"
       id="path175" />
    <path
       style="fill:none;fill-opacity:1;stroke:#000000;stroke-width:0.499999;stroke-linecap:round;stroke-dasharray:none;stroke-opacity:1"
       d="m 24.774521,36.562255 c 0.08159,0.905858 0.363027,1.606877 0.651015,2.356717 0.176708,0.460097 0.319603,0.942954 0.515457,1.395156 0.05803,0.133972 0.141541,0.257006 0.200974,0.389702 0.209023,0.466693 0.306757,1.00556 0.471335,1.489424 0.165079,0.485331 0.39665,0.952495 0.565605,1.439082 0.207661,0.598065 0.528638,1.539553 1.131401,1.866493 0.780185,0.423175 1.952241,0.314399 2.796725,0.157046 0.355351,-0.06621 0.708774,-0.03616 1.062014,-0.08163 0.419052,-0.05395 1.172665,-0.337934 1.565031,-0.534117 1.065268,-0.532635 1.767467,-2.165099 1.370082,-3.299354 -0.39787,-1.135645 -1.344264,-0.996217 -2.344241,-1.093502 -0.37761,-0.03674 -1.116525,-0.250092 -1.420423,-0.452482 -0.318098,-0.211847 -0.82047,-0.515194 -1.068427,-0.804479 -0.535173,-0.624369 -0.943221,-2.36138 -1.124987,-3.16116 -0.147006,-0.646816 -0.377828,-1.282099 -0.326729,-1.954347 0.03664,-0.482007 0.265329,-0.940456 0.383289,-1.401569 0.05113,-0.19988 0.192722,-0.404101 0.220022,-0.596895"
       id="path176" />
    <path
       style="fill:#4063d8;fill-opacity:1;stroke:#000000;stroke-width:0.755906;stroke-linecap:round;stroke-dasharray:none;stroke-opacity:1"
       d="m 36.2392,127.0389 c -1.126165,-1.05199 -2.124343,-3.25197 -2.545983,-5.61132 -0.425164,-2.37908 -0.22312,-2.86141 2.639211,-6.30047 l 2.061642,-2.47704 1.026214,1.25236 c 1.155102,1.40964 1.810046,1.84787 2.414866,1.61578 1.112364,-0.42686 0.812793,-1.31567 -1.295935,-3.84499 C 36.698417,107.06638 32.528513,99.406489 30.431646,93.106169 26.022474,79.858219 26.411327,65.223726 31.520885,52.112611 38.458557,34.310555 54.17701,20.423775 72.657175,15.76994 c 5.03693,-1.268444 7.482847,-1.586542 13.335582,-1.734331 4.463072,-0.112698 6.465915,-0.04114 9.25983,0.330812 24.736883,3.293245 44.766113,21.167423 50.805143,45.338753 1.24691,4.990742 1.66876,8.672577 1.66271,14.511674 -0.0102,9.816565 -1.8459,17.751916 -6.12444,26.474322 -1.71469,3.49563 -5.04592,8.72355 -7.20865,11.31302 -1.65289,1.97902 -1.87177,3.00105 -0.70541,3.29378 0.86423,0.21691 1.40358,-0.34765 4.71813,-4.93869 2.36846,-3.28059 2.42116,-3.3043 4.20953,-1.8942 1.92198,1.51545 4.03625,6.56695 4.35223,10.39854 0.19203,2.32857 0.0937,2.44899 -2.59331,3.17528 -1.03273,0.27914 -2.39686,0.66469 -3.03139,0.85676 -1.42059,0.43002 -2.33093,0.0751 -6.03304,-2.35232 -4.91736,-3.22419 -5.68724,-3.18952 -9.44182,0.42522 -1.91852,1.84706 -3.83158,2.96784 -5.79707,3.39626 -0.76586,0.16693 -1.04794,0.0289 -2.45181,-1.19957 -2.32755,-2.03679 -3.68082,-2.61747 -5.67799,-2.43637 -1.63915,0.14863 -2.64019,0.59883 -6.19123,2.78437 -0.90322,0.55591 -1.93727,1.01074 -2.2979,1.01074 -0.43826,0 -1.37749,-0.68757 -2.83232,-2.07341 -3.765037,-3.5865 -4.78128,-3.53943 -9.812331,0.45445 -2.744476,2.1787 -4.023203,2.84476 -4.91689,2.56111 -0.325553,-0.10332 -1.618065,-1.17059 -2.872253,-2.3717 -4.316363,-4.13371 -5.986873,-4.05576 -11.836169,0.55234 -2.636896,2.07735 -4.210569,3.08851 -4.806687,3.08851 -0.15033,0 -0.870761,-0.51708 -1.600961,-1.14906 -1.752847,-1.51708 -4.327254,-2.72023 -5.821135,-2.7205 -0.868349,-1.7e-4 -1.861331,0.35809 -3.830096,1.38184 -1.461802,0.76014 -2.884871,1.38207 -3.162375,1.38207 -0.277503,0 -1.516608,-0.37316 -2.753567,-0.82924 -2.529612,-0.9327 -4.539616,-1.0688 -5.841534,-0.39556 -0.461257,0.23853 -1.573471,1.10923 -2.471587,1.93489 -1.39448,1.28199 -1.790479,1.50121 -2.711759,1.50121 -0.809017,0 -1.293546,-0.20058 -1.937406,-0.80204 z"
       id="path177"
       transform="scale(0.26458333)" />
    <path
       style="fill:#cb3c33;fill-opacity:1;stroke:#000000;stroke-width:0.755906;stroke-linecap:round;stroke-dasharray:none;stroke-opacity:1"
       d="m 46.229117,180.44294 c -3.242682,-1.41252 -3.463508,-1.54773 -4.120894,-2.52323 -1.823273,-2.70555 -0.523935,-8.81204 3.356306,-15.77359 2.616473,-4.69423 3.301078,-6.49935 4.965239,-13.09203 1.095894,-4.34145 1.522711,-6.5928 1.637304,-8.63637 0.224497,-4.00351 1.097511,-8.37184 2.260209,-11.30948 1.001465,-2.53028 1.033761,-2.57269 2.511294,-3.29734 0.82323,-0.40375 1.809946,-0.73409 2.192702,-0.73409 0.945397,0 2.722073,0.9424 4.486751,2.37989 1.60036,1.30365 2.827743,1.68385 3.998685,1.23866 l 0.757259,-0.28791 0.0026,1.58253 c 0.0061,3.65045 0.591686,12.53431 0.969769,14.71214 0.820161,4.72431 0.392758,9.35697 -1.641948,17.79715 -1.030451,4.27443 -1.753338,6.13944 -3.347113,8.63536 -1.435957,2.24878 -4.927938,5.76684 -6.757957,6.80843 -0.839171,0.47763 -2.097355,1.27673 -2.795964,1.77578 -1.040123,0.74301 -1.728721,0.97525 -3.801607,1.28211 l -2.531409,0.37474 z"
       id="path178"
       transform="scale(0.26458333)" />
    <path
       style="fill:#389826;fill-opacity:1;stroke:#000000;stroke-width:0.755906;stroke-linecap:round;stroke-dasharray:none;stroke-opacity:1"
       d="m 81.656637,177.06733 c -1.26615,-0.54862 -3.731358,-2.29098 -4.153937,-2.93591 -0.844458,-1.28881 -1.779175,-5.244 -2.447593,-10.35681 -0.367688,-2.8125 -0.92439,-6.34009 -1.237114,-7.83909 -0.312724,-1.499 -0.56859,-3.2516 -0.56859,-3.89467 0,-0.64307 -0.26329,-2.1531 -0.585089,-3.35563 -1.3113,-4.90019 -1.620015,-6.80153 -1.916802,-11.80536 -0.309922,-5.2253 -0.257128,-7.88774 0.188183,-9.49008 0.414151,-1.49022 5.282773,-5.0771 6.89136,-5.0771 1.009422,0 1.726042,0.49581 4.405766,3.04821 3.471827,3.30687 5.090257,3.21801 9.784807,-0.53726 0.972859,-0.77821 1.801369,-1.38166 1.841133,-1.34101 0.03977,0.0407 -0.256704,1.00681 -0.658819,2.14702 -0.702796,1.99278 -0.729837,2.28725 -0.698027,7.60135 0.03877,6.47629 0.398578,10.06017 1.373679,13.68244 0.555526,2.06364 0.738341,3.52627 0.853778,6.83075 0.225852,6.46519 -0.577829,10.51021 -3.094864,15.57682 -2.132302,4.29216 -3.63452,6.27113 -5.471905,7.2085 -1.234179,0.62963 -3.633243,0.91598 -4.505966,0.53783 z"
       id="path179"
       transform="scale(0.26458333)" />
    <path
       style="fill:#9558bf;fill-opacity:1;stroke:#000000;stroke-width:0.755906;stroke-linecap:round;stroke-dasharray:none;stroke-opacity:1"
       d="m 109.82612,171.77831 c -1.42993,-0.28274 -2.53306,-0.84408 -3.31924,-1.68905 -0.62266,-0.6692 -2.07304,-3.43837 -2.43873,-4.65617 -0.11412,-0.38007 -0.70192,-1.93489 -1.30622,-3.45516 -0.60429,-1.52027 -1.46544,-3.99425 -1.91365,-5.49772 -0.44822,-1.50348 -1.075405,-3.24414 -1.393745,-3.86814 -0.852317,-1.67068 -3.791394,-9.72112 -4.250118,-11.64152 -0.540273,-2.2618 -0.825845,-10.59929 -0.433935,-12.66906 0.361091,-1.90701 1.542249,-4.65688 2.29155,-5.33499 0.512533,-0.46384 0.598037,-0.41598 2.387423,1.3364 1.020715,0.99961 2.127545,1.95583 2.459605,2.12493 1.43917,0.73289 3.34426,0.2086 6.09926,-1.67854 0.64611,-0.44258 1.17475,-0.7384 1.17475,-0.65738 0,0.081 -0.32145,1.23756 -0.71434,2.5701 -0.57457,1.94875 -0.68718,2.80137 -0.57553,4.35768 0.24071,3.35517 3.12809,14.08899 4.52554,16.82369 1.1067,2.16573 4.65024,4.92712 7.69457,5.99619 0.9056,0.31802 3.24342,0.75047 5.19516,0.96101 3.93241,0.42418 4.94716,0.82741 5.81298,2.30989 1.75634,3.00729 0.59267,7.94526 -2.56938,10.90299 -1.80297,1.68647 -5.10479,2.93261 -8.5889,3.24153 -1.44425,0.12806 -3.49662,0.36068 -4.56081,0.51694 -2.23303,0.32789 -3.94037,0.32985 -5.57624,0.006 z"
       id="path180"
       transform="scale(0.26458333)" />
    <circle
       style="fill:#000000;fill-opacity:1;stroke:#000000;stroke-width:0.499999;stroke-linecap:round;stroke-dasharray:none;stroke-opacity:1"
       id="path181"
       cx="15.527025"
       cy="18.950909"
       r="2.5496993" />
    <circle
       style="fill:#000000;fill-opacity:1;stroke:#000000;stroke-width:0.499999;stroke-linecap:round;stroke-dasharray:none;stroke-opacity:1"
       id="path181-5"
       cx="30.979942"
       cy="18.811323"
       r="2.5496993" />
    <circle
       style="fill:#ffffff;fill-opacity:1;stroke:#000000;stroke-width:0.499999;stroke-linecap:round;stroke-dasharray:none;stroke-opacity:1"
       id="path182"
       cx="14.584851"
       cy="18.876917"
       r="1.0253077" />
    <circle
       style="fill:#ffffff;fill-opacity:1;stroke:#000000;stroke-width:0.499999;stroke-linecap:round;stroke-dasharray:none;stroke-opacity:1"
       id="path182-2"
       cx="30.307127"
       cy="18.16312"
       r="1.0253077" />
    <path
       style="fill:#ffffff;fill-opacity:1;stroke:#000000;stroke-width:0.5;stroke-linecap:round;stroke-linejoin:round;stroke-dasharray:none;stroke-opacity:1"
       d="m 20.122493,22.101898 6.577223,-0.147697 c 0.06918,1.567235 0.121952,2.742257 -1.094393,3.841327 -1.60724,1.246711 -2.992228,1.260065 -4.240358,10e-7 -1.656309,-1.672146 -1.256137,-3.704135 -1.256137,-3.704135 z"
       id="path183" />
  </g>
</svg>
